<mxfile host="app.diagrams.net" agent="Mozilla/5.0 (X11; Linux x86_64; Chromium GOST) AppleWebKit/537.36 (KHTML, like Gecko) Chrome/131.0.0.0 Safari/537.36" version="26.0.7">
  <diagram id="C5RBs43oDa-KdzZeNtuy" name="Page-1">
    <mxGraphModel dx="1434" dy="761" grid="1" gridSize="10" guides="1" tooltips="1" connect="1" arrows="1" fold="1" page="1" pageScale="1" pageWidth="827" pageHeight="1169" math="0" shadow="0">
      <root>
        <mxCell id="WIyWlLk6GJQsqaUBKTNV-0" />
        <mxCell id="WIyWlLk6GJQsqaUBKTNV-1" parent="WIyWlLk6GJQsqaUBKTNV-0" />
        <mxCell id="sTCpCK5VipuB9gKSEeCP-0" style="edgeStyle=orthogonalEdgeStyle;rounded=0;orthogonalLoop=1;jettySize=auto;html=1;exitX=1;exitY=0.3333333333333333;exitDx=0;exitDy=0;exitPerimeter=0;entryX=0;entryY=0.5;entryDx=0;entryDy=0;" edge="1" parent="WIyWlLk6GJQsqaUBKTNV-1" source="sTCpCK5VipuB9gKSEeCP-2" target="sTCpCK5VipuB9gKSEeCP-9">
          <mxGeometry relative="1" as="geometry" />
        </mxCell>
        <mxCell id="sTCpCK5VipuB9gKSEeCP-1" style="edgeStyle=orthogonalEdgeStyle;rounded=0;orthogonalLoop=1;jettySize=auto;html=1;exitX=1;exitY=0.3333333333333333;exitDx=0;exitDy=0;exitPerimeter=0;entryX=0;entryY=0.5;entryDx=0;entryDy=0;" edge="1" parent="WIyWlLk6GJQsqaUBKTNV-1" source="sTCpCK5VipuB9gKSEeCP-2" target="sTCpCK5VipuB9gKSEeCP-10">
          <mxGeometry relative="1" as="geometry" />
        </mxCell>
        <mxCell id="sTCpCK5VipuB9gKSEeCP-2" value="Пользователь" style="shape=umlActor;verticalLabelPosition=bottom;verticalAlign=top;html=1;outlineConnect=0;" vertex="1" parent="WIyWlLk6GJQsqaUBKTNV-1">
          <mxGeometry x="80" y="140" width="30" height="60" as="geometry" />
        </mxCell>
        <mxCell id="sTCpCK5VipuB9gKSEeCP-3" style="edgeStyle=orthogonalEdgeStyle;rounded=0;orthogonalLoop=1;jettySize=auto;html=1;exitX=1;exitY=0.3333333333333333;exitDx=0;exitDy=0;exitPerimeter=0;entryX=0;entryY=0.5;entryDx=0;entryDy=0;" edge="1" parent="WIyWlLk6GJQsqaUBKTNV-1" source="sTCpCK5VipuB9gKSEeCP-5" target="sTCpCK5VipuB9gKSEeCP-17">
          <mxGeometry relative="1" as="geometry" />
        </mxCell>
        <mxCell id="sTCpCK5VipuB9gKSEeCP-4" style="edgeStyle=orthogonalEdgeStyle;rounded=0;orthogonalLoop=1;jettySize=auto;html=1;exitX=1;exitY=0.3333333333333333;exitDx=0;exitDy=0;exitPerimeter=0;" edge="1" parent="WIyWlLk6GJQsqaUBKTNV-1" source="sTCpCK5VipuB9gKSEeCP-5" target="sTCpCK5VipuB9gKSEeCP-20">
          <mxGeometry relative="1" as="geometry" />
        </mxCell>
        <mxCell id="sTCpCK5VipuB9gKSEeCP-5" value="Адиинистратор" style="shape=umlActor;verticalLabelPosition=bottom;verticalAlign=top;html=1;outlineConnect=0;" vertex="1" parent="WIyWlLk6GJQsqaUBKTNV-1">
          <mxGeometry x="80" y="340" width="30" height="60" as="geometry" />
        </mxCell>
        <mxCell id="sTCpCK5VipuB9gKSEeCP-6" style="edgeStyle=orthogonalEdgeStyle;rounded=0;orthogonalLoop=1;jettySize=auto;html=1;exitX=1;exitY=0.5;exitDx=0;exitDy=0;entryX=0;entryY=0.5;entryDx=0;entryDy=0;" edge="1" parent="WIyWlLk6GJQsqaUBKTNV-1" source="sTCpCK5VipuB9gKSEeCP-9" target="sTCpCK5VipuB9gKSEeCP-12">
          <mxGeometry relative="1" as="geometry">
            <Array as="points">
              <mxPoint x="300" y="120" />
              <mxPoint x="300" y="60" />
            </Array>
          </mxGeometry>
        </mxCell>
        <mxCell id="sTCpCK5VipuB9gKSEeCP-7" style="edgeStyle=orthogonalEdgeStyle;rounded=0;orthogonalLoop=1;jettySize=auto;html=1;exitX=1;exitY=0.5;exitDx=0;exitDy=0;" edge="1" parent="WIyWlLk6GJQsqaUBKTNV-1" source="sTCpCK5VipuB9gKSEeCP-9" target="sTCpCK5VipuB9gKSEeCP-14">
          <mxGeometry relative="1" as="geometry" />
        </mxCell>
        <mxCell id="sTCpCK5VipuB9gKSEeCP-8" style="edgeStyle=orthogonalEdgeStyle;rounded=0;orthogonalLoop=1;jettySize=auto;html=1;exitX=1;exitY=0.5;exitDx=0;exitDy=0;entryX=0;entryY=0.5;entryDx=0;entryDy=0;" edge="1" parent="WIyWlLk6GJQsqaUBKTNV-1" source="sTCpCK5VipuB9gKSEeCP-9" target="sTCpCK5VipuB9gKSEeCP-16">
          <mxGeometry relative="1" as="geometry">
            <Array as="points">
              <mxPoint x="300" y="120" />
              <mxPoint x="300" y="180" />
            </Array>
          </mxGeometry>
        </mxCell>
        <mxCell id="sTCpCK5VipuB9gKSEeCP-9" value="Играть" style="rounded=1;whiteSpace=wrap;html=1;" vertex="1" parent="WIyWlLk6GJQsqaUBKTNV-1">
          <mxGeometry x="180" y="100" width="110" height="40" as="geometry" />
        </mxCell>
        <mxCell id="sTCpCK5VipuB9gKSEeCP-10" value="Выйти" style="rounded=1;whiteSpace=wrap;html=1;" vertex="1" parent="WIyWlLk6GJQsqaUBKTNV-1">
          <mxGeometry x="180" y="180" width="110" height="40" as="geometry" />
        </mxCell>
        <mxCell id="sTCpCK5VipuB9gKSEeCP-11" style="edgeStyle=orthogonalEdgeStyle;rounded=0;orthogonalLoop=1;jettySize=auto;html=1;exitX=1;exitY=0.5;exitDx=0;exitDy=0;entryX=0;entryY=0.5;entryDx=0;entryDy=0;" edge="1" parent="WIyWlLk6GJQsqaUBKTNV-1" source="sTCpCK5VipuB9gKSEeCP-12" target="sTCpCK5VipuB9gKSEeCP-25">
          <mxGeometry relative="1" as="geometry" />
        </mxCell>
        <mxCell id="sTCpCK5VipuB9gKSEeCP-12" value="Играть" style="rounded=1;whiteSpace=wrap;html=1;" vertex="1" parent="WIyWlLk6GJQsqaUBKTNV-1">
          <mxGeometry x="320" y="40" width="110" height="40" as="geometry" />
        </mxCell>
        <mxCell id="sTCpCK5VipuB9gKSEeCP-13" style="edgeStyle=orthogonalEdgeStyle;rounded=0;orthogonalLoop=1;jettySize=auto;html=1;exitX=1;exitY=0.5;exitDx=0;exitDy=0;entryX=0;entryY=0.5;entryDx=0;entryDy=0;" edge="1" parent="WIyWlLk6GJQsqaUBKTNV-1" source="sTCpCK5VipuB9gKSEeCP-14" target="sTCpCK5VipuB9gKSEeCP-26">
          <mxGeometry relative="1" as="geometry" />
        </mxCell>
        <mxCell id="sTCpCK5VipuB9gKSEeCP-14" value="как играть" style="rounded=1;whiteSpace=wrap;html=1;" vertex="1" parent="WIyWlLk6GJQsqaUBKTNV-1">
          <mxGeometry x="320" y="100" width="110" height="40" as="geometry" />
        </mxCell>
        <mxCell id="sTCpCK5VipuB9gKSEeCP-15" style="edgeStyle=orthogonalEdgeStyle;rounded=0;orthogonalLoop=1;jettySize=auto;html=1;exitX=1;exitY=0.5;exitDx=0;exitDy=0;" edge="1" parent="WIyWlLk6GJQsqaUBKTNV-1" source="sTCpCK5VipuB9gKSEeCP-16" target="sTCpCK5VipuB9gKSEeCP-27">
          <mxGeometry relative="1" as="geometry" />
        </mxCell>
        <mxCell id="sTCpCK5VipuB9gKSEeCP-16" value="о игра" style="rounded=1;whiteSpace=wrap;html=1;" vertex="1" parent="WIyWlLk6GJQsqaUBKTNV-1">
          <mxGeometry x="320" y="160" width="110" height="40" as="geometry" />
        </mxCell>
        <mxCell id="sTCpCK5VipuB9gKSEeCP-17" value="Статистика игры" style="rounded=1;whiteSpace=wrap;html=1;" vertex="1" parent="WIyWlLk6GJQsqaUBKTNV-1">
          <mxGeometry x="180" y="310" width="110" height="40" as="geometry" />
        </mxCell>
        <mxCell id="sTCpCK5VipuB9gKSEeCP-18" style="edgeStyle=orthogonalEdgeStyle;rounded=0;orthogonalLoop=1;jettySize=auto;html=1;exitX=1;exitY=0.5;exitDx=0;exitDy=0;" edge="1" parent="WIyWlLk6GJQsqaUBKTNV-1" source="sTCpCK5VipuB9gKSEeCP-20" target="sTCpCK5VipuB9gKSEeCP-23">
          <mxGeometry relative="1" as="geometry" />
        </mxCell>
        <mxCell id="sTCpCK5VipuB9gKSEeCP-19" style="edgeStyle=orthogonalEdgeStyle;rounded=0;orthogonalLoop=1;jettySize=auto;html=1;exitX=1;exitY=0.5;exitDx=0;exitDy=0;entryX=0;entryY=0.5;entryDx=0;entryDy=0;" edge="1" parent="WIyWlLk6GJQsqaUBKTNV-1" source="sTCpCK5VipuB9gKSEeCP-20" target="sTCpCK5VipuB9gKSEeCP-22">
          <mxGeometry relative="1" as="geometry" />
        </mxCell>
        <mxCell id="sTCpCK5VipuB9gKSEeCP-20" value="Управление игрой" style="rounded=1;whiteSpace=wrap;html=1;" vertex="1" parent="WIyWlLk6GJQsqaUBKTNV-1">
          <mxGeometry x="180" y="390" width="110" height="40" as="geometry" />
        </mxCell>
        <mxCell id="sTCpCK5VipuB9gKSEeCP-21" style="edgeStyle=orthogonalEdgeStyle;rounded=0;orthogonalLoop=1;jettySize=auto;html=1;exitX=1;exitY=0.5;exitDx=0;exitDy=0;entryX=0;entryY=0.5;entryDx=0;entryDy=0;" edge="1" parent="WIyWlLk6GJQsqaUBKTNV-1" source="sTCpCK5VipuB9gKSEeCP-22" target="sTCpCK5VipuB9gKSEeCP-24">
          <mxGeometry relative="1" as="geometry" />
        </mxCell>
        <mxCell id="sTCpCK5VipuB9gKSEeCP-22" value="Обновить игру" style="rounded=1;whiteSpace=wrap;html=1;" vertex="1" parent="WIyWlLk6GJQsqaUBKTNV-1">
          <mxGeometry x="320" y="420" width="110" height="40" as="geometry" />
        </mxCell>
        <mxCell id="sTCpCK5VipuB9gKSEeCP-23" value="Удалить игру" style="rounded=1;whiteSpace=wrap;html=1;" vertex="1" parent="WIyWlLk6GJQsqaUBKTNV-1">
          <mxGeometry x="320" y="370" width="110" height="40" as="geometry" />
        </mxCell>
        <mxCell id="sTCpCK5VipuB9gKSEeCP-24" value="Сохранить изминения" style="rounded=1;whiteSpace=wrap;html=1;" vertex="1" parent="WIyWlLk6GJQsqaUBKTNV-1">
          <mxGeometry x="460" y="390" width="110" height="40" as="geometry" />
        </mxCell>
        <mxCell id="sTCpCK5VipuB9gKSEeCP-25" value="Игровой процесс" style="rounded=1;whiteSpace=wrap;html=1;" vertex="1" parent="WIyWlLk6GJQsqaUBKTNV-1">
          <mxGeometry x="450" y="40" width="110" height="40" as="geometry" />
        </mxCell>
        <mxCell id="sTCpCK5VipuB9gKSEeCP-26" value="назад" style="rounded=1;whiteSpace=wrap;html=1;" vertex="1" parent="WIyWlLk6GJQsqaUBKTNV-1">
          <mxGeometry x="450" y="100" width="110" height="40" as="geometry" />
        </mxCell>
        <mxCell id="sTCpCK5VipuB9gKSEeCP-27" value="назад" style="rounded=1;whiteSpace=wrap;html=1;" vertex="1" parent="WIyWlLk6GJQsqaUBKTNV-1">
          <mxGeometry x="450" y="160" width="110" height="40" as="geometry" />
        </mxCell>
      </root>
    </mxGraphModel>
  </diagram>
</mxfile>
